<svg width="36" height="23" viewBox="0 0 36 23" fill="none" xmlns="http://www.w3.org/2000/svg">
<path d="M35.9991 11.5007C35.9991 13.7692 35.1151 15.9015 33.5102 17.5045C32.0145 18.9981 30.0592 19.8665 27.962 19.9781V22.5383C27.962 22.7254 27.8494 22.894 27.6762 22.9655C27.6188 22.9893 27.5589 23.0007 27.4991 23.0007C27.3787 23.0007 27.2602 22.9538 27.1716 22.8653L23.1531 18.8517C23.0663 18.7647 23.0176 18.6473 23.0176 18.5246C23.0176 18.4019 23.0663 18.2844 23.1531 18.1975L27.1716 14.1838C27.304 14.0516 27.5031 14.0121 27.6762 14.0837C27.8494 14.1552 27.962 14.3238 27.962 14.5109V17.0396C30.8148 16.8041 33.0639 14.4098 33.0639 11.5007C33.0639 10.5876 32.8457 9.71547 32.4151 8.90842C32.3191 8.72901 32.3521 8.50798 32.4963 8.36401L33.9629 6.89912C34.0623 6.79986 34.2018 6.75084 34.3417 6.76656C34.4815 6.78198 34.6068 6.86028 34.6818 6.97927C35.5435 8.34213 35.9991 9.90536 35.9991 11.5007Z" fill="#9080FF"/>
<path d="M22.584 14.092C22.6799 14.2717 22.6469 14.4927 22.5028 14.6367L21.0361 16.1016C20.9488 16.1888 20.8309 16.2369 20.7086 16.2369C20.6917 16.2369 20.6747 16.236 20.6574 16.2342C20.5176 16.2187 20.3923 16.1404 20.3173 16.0214C19.4556 14.6586 19 13.0954 19 11.5001C19 9.2315 19.884 7.0992 21.4889 5.4962C22.9846 4.00263 24.9398 3.13424 27.037 3.02264V0.462463C27.037 0.275343 27.1497 0.10672 27.3228 0.0352012C27.4957 -0.0363173 27.6951 0.0031412 27.8275 0.135389L31.846 4.14906C31.9327 4.23599 31.9815 4.35344 31.9815 4.47613C31.9815 4.59882 31.9327 4.71628 31.846 4.80321L27.8275 8.81688C27.6951 8.94913 27.4957 8.98859 27.3228 8.91707C27.1497 8.84555 27.037 8.67692 27.037 8.48981V5.96107C24.1843 6.19659 21.9352 8.59092 21.9352 11.5001C21.9352 12.4132 22.1534 13.2852 22.584 14.092Z" fill="#46AFB8"/>
<mask id="mask0_5_104" style="mask-type:luminance" maskUnits="userSpaceOnUse" x="0" y="0" width="17" height="24">
<path d="M16.434 0H0V23.007H16.434V0Z" fill="white"/>
</mask>
<g mask="url(#mask0_5_104)">
<path d="M0.820313 20.5431V16.4491C0.820326 15.7347 1.05314 15.0398 1.4835 14.4696C1.91386 13.8994 2.51831 13.485 3.20531 13.2891L6.57331 12.3281L8.21531 13.9711L9.86031 12.3281L13.2263 13.2901C13.9131 13.4862 14.5174 13.9007 14.9475 14.4709C15.3777 15.0411 15.6104 15.7359 15.6103 16.4501V20.5441C15.6104 20.7599 15.568 20.9736 15.4855 21.173C15.403 21.3724 15.282 21.5536 15.1294 21.7062C14.9768 21.8588 14.7956 21.9798 14.5962 22.0623C14.3968 22.1448 14.1831 22.1873 13.9673 22.1871H2.46331C2.24747 22.1871 2.03374 22.1446 1.83433 22.062C1.63493 21.9793 1.45376 21.8582 1.30118 21.7055C1.1486 21.5529 1.0276 21.3716 0.945092 21.1722C0.862582 20.9727 0.820181 20.759 0.820313 20.5431Z" fill="#4ABCEE"/>
<path d="M0.820313 20.5431V16.4491C0.820326 15.7347 1.05314 15.0398 1.4835 14.4696C1.91386 13.8994 2.51831 13.485 3.20531 13.2891L6.57331 12.3281L8.21531 13.9711L9.86031 12.3281L13.2263 13.2901C13.9131 13.4862 14.5174 13.9007 14.9475 14.4709C15.3777 15.0411 15.6104 15.7359 15.6103 16.4501V20.5441C15.6104 20.7599 15.568 20.9736 15.4855 21.173C15.403 21.3724 15.282 21.5536 15.1294 21.7062C14.9768 21.8588 14.7956 21.9798 14.5962 22.0623C14.3968 22.1448 14.1831 22.1873 13.9673 22.1871H2.46331C2.24747 22.1871 2.03374 22.1446 1.83433 22.062C1.63493 21.9793 1.45376 21.8582 1.30118 21.7055C1.1486 21.5529 1.0276 21.3716 0.945092 21.1722C0.862582 20.9727 0.820181 20.759 0.820313 20.5431Z" stroke="#323233" stroke-width="1.573" stroke-linecap="round" stroke-linejoin="round"/>
<path d="M12.3234 4.92931C12.3232 5.74176 12.0821 6.5359 11.6306 7.21132C11.1791 7.88675 10.5375 8.41313 9.78679 8.7239C9.03614 9.03467 8.21019 9.11588 7.41338 8.95726C6.61657 8.79864 5.88469 8.40731 5.31028 7.83275C4.73586 7.2582 4.34471 6.52622 4.18628 5.72938C4.02786 4.93253 4.10927 4.1066 4.42022 3.35602C4.73118 2.60544 5.25771 1.96391 5.93325 1.51257C6.60878 1.06122 7.40298 0.820313 8.21542 0.820313C8.75498 0.820312 9.28925 0.926602 9.78772 1.13311C10.2862 1.33962 10.7391 1.6423 11.1206 2.02387C11.502 2.40544 11.8046 2.85842 12.011 3.35694C12.2174 3.85546 12.3236 4.38976 12.3234 4.92931Z" fill="#FE9E2C"/>
<path d="M12.3234 4.92931C12.3232 5.74176 12.0821 6.5359 11.6306 7.21132C11.1791 7.88675 10.5375 8.41313 9.78679 8.7239C9.03614 9.03467 8.21019 9.11588 7.41338 8.95726C6.61657 8.79864 5.88469 8.40731 5.31028 7.83275C4.73586 7.2582 4.34471 6.52622 4.18628 5.72938C4.02786 4.93253 4.10927 4.1066 4.42022 3.35602C4.73118 2.60544 5.25771 1.96391 5.93325 1.51257C6.60878 1.06122 7.40298 0.820313 8.21542 0.820313C8.75498 0.820312 9.28925 0.926602 9.78772 1.13311C10.2862 1.33962 10.7391 1.6423 11.1206 2.02387C11.502 2.40544 11.8046 2.85842 12.011 3.35694C12.2174 3.85546 12.3236 4.38976 12.3234 4.92931Z" stroke="#323233" stroke-width="1.573" stroke-linecap="round" stroke-linejoin="round"/>
<path d="M4.1073 22.1853V18.8983" stroke="#323233" stroke-width="1.573" stroke-linecap="round" stroke-linejoin="round"/>
<path d="M12.3243 18.8983V22.1853" stroke="#323233" stroke-width="1.573" stroke-linecap="round" stroke-linejoin="round"/>
</g>
</svg>
